div.innerHTML = '<svg class="iconsvg" viewBox="0 0 32 32" style="fill:currentcolor"><path d="'+ svg + '"></path></svg>';

<svg class="iconsvg" viewBox="0 0 32 32" style="fill:currentcolor">
  <path d=""></path>
</svg>  



<svg id="svg-source" height="0" version="1.1" 
  xmlns="http://www.w3.org/2000/svg" style="position:absolute; margin-left: -100%" 
  xmlns:xlink="http://www.w3.org/1999/xlink">
  <g id="arrow-left-1" class="arrow-left-1" data-iconmelon="Line icon set:a006a98831cee75a2bfb98deccde127a">
    <g id="Arrow_x5F_Left_x5F_1">
      <g>
        <path  d="M16.293,16.734C16.104,16.545,16,16.294,16,16.027c0-0.268,0.104-0.518,0.291-0.705l8.536-8.494
         C25.583,6.073,26,5.068,26,4s-0.416-2.072-1.172-2.828C24.073,0.416,23.069,0,22,0c-1.068,0-2.072,0.416-2.816,1.16L7.465,12.492
         C6.521,13.436,6,14.691,6,16.027s0.521,2.592,1.479,3.551l10.084,9.671l1.606,1.606c0.756,0.756,1.761,1.172,2.829,1.172
         s2.073-0.416,2.828-1.171C25.583,30.101,26,29.096,26,28.028c0-1.068-0.416-2.073-1.175-2.832L16.293,16.734z M23.414,29.441
         c-0.756,0.756-2.073,0.756-2.829,0L8.879,18.148C8.313,17.582,8,16.828,8,16.027c0-0.802,0.312-1.555,0.867-2.109L20.585,2.586
         C20.963,2.208,21.465,2,22,2s1.036,0.208,1.414,0.586S24,3.466,24,4s-0.208,1.036-0.584,1.412l-8.536,8.494
         C14.313,14.473,14,15.226,14,16.027c0,0.801,0.312,1.555,0.882,2.124l8.531,8.462C23.792,26.991,24,27.494,24,28.028
         C24,28.562,23.792,29.063,23.414,29.441z"></path>
      </g>
    </g>
  </g>
  <!-- </svg> -->
  <g id="arrow-left-2" data-iconmelon="Line icon set:2a314c9e62c9364d4302e1165dd03074">
    <g id="Arrow_x5F_Left_x5F_2">
      <g>
        <path  d="M28,12.027H15c-0.18,0-0.299-0.093-0.356-0.15c-0.093-0.093-0.144-0.217-0.144-0.35
         c0-0.18,0.092-0.299,0.16-0.367l4.167-4.332c0.756-0.755,1.172-1.76,1.172-2.828s-0.416-2.072-1.172-2.828
         C18.072,0.416,17.068,0,15.999,0c-1.068,0-2.072,0.416-2.816,1.16L1.465,12.492C0.521,13.436,0,14.691,0,16.027
         s0.521,2.592,1.465,3.536c0.051,0.051,0.106,0.095,0.165,0.132l11.541,11.16c0.756,0.756,1.76,1.172,2.828,1.172
         c1.069,0,2.073-0.416,2.828-1.172c0.756-0.755,1.172-1.76,1.172-2.828s-0.416-2.073-1.158-2.814l-4.194-4.359
         C14.592,20.799,14.5,20.681,14.5,20.5c0-0.133,0.051-0.257,0.146-0.353C14.701,20.093,14.82,20,15,20h13
         c2.196,0,3.99-1.786,4-3.99v-0.037C31.971,13.794,30.184,12.027,28,12.027z M28,18H15c-0.67,0-1.3,0.263-1.771,0.736
         c-0.471,0.47-0.729,1.097-0.729,1.764c0,0.668,0.26,1.295,0.719,1.754l4.194,4.359c0.378,0.378,0.586,0.88,0.586,1.414
         s-0.208,1.036-0.586,1.414c-0.756,0.756-2.061,0.768-2.84-0.012L2.867,18.109c-0.036-0.035-0.074-0.067-0.115-0.095
         C2.266,17.466,2,16.767,2,16.027c0-0.801,0.312-1.555,0.867-2.109L14.585,2.586c0.756-0.756,2.072-0.756,2.828,0
         c0.378,0.378,0.586,0.88,0.586,1.414s-0.208,1.036-0.6,1.428L13.232,9.76c-0.473,0.472-0.732,1.1-0.732,1.768
         c0,0.667,0.259,1.294,0.727,1.762C13.7,13.765,14.33,14.027,15,14.027h13c1.098,0,1.995,0.893,2,1.982
         C29.995,17.106,29.098,18,28,18z"></path>
      </g>
    </g>
  </g>
  <g id="arrow-right-1" data-iconmelon="Line icon set:0aa349dbbd7527442daeb9ee5458fb3a">
    <g id="Arrow_x5F_Right_x5F_1">
      <g>
        <path  d="M24.535,12.492L12.817,1.16C12.073,0.416,11.069,0,10,0C8.931,0,7.927,0.416,7.172,1.172
         C6.417,1.928,6,2.932,6,4s0.416,2.073,1.172,2.828l8.536,8.494C15.896,15.51,16,15.76,16,16.027c0,0.267-0.104,0.518-0.293,0.707
         l-8.531,8.462C6.417,25.955,6,26.96,6,28.028c0,1.067,0.416,2.072,1.172,2.828c0.755,0.755,1.76,1.171,2.828,1.171
         s2.073-0.416,2.829-1.172l1.606-1.606l10.084-9.671C25.479,18.619,26,17.363,26,16.027S25.479,13.436,24.535,12.492z
          M23.121,18.148L11.416,29.441c-0.756,0.756-2.073,0.756-2.829,0C8.208,29.063,8,28.562,8,28.028c0-0.534,0.208-1.037,0.586-1.415
         l8.531-8.462C17.687,17.582,18,16.828,18,16.027c0-0.802-0.312-1.555-0.879-2.121L8.584,5.412C8.208,5.036,8,4.534,8,4
         s0.208-1.036,0.586-1.414S9.466,2,10,2s1.036,0.208,1.414,0.586l11.718,11.332C23.687,14.473,24,15.226,24,16.027
         C24,16.828,23.687,17.582,23.121,18.148z"></path>
      </g>
    </g>
  </g>
  <g id="arrow-right-2" data-iconmelon="Line icon set:d24fb49b302566b1cc16d05c04b2b4f3">
    <g id="Arrow_x5F_Right_x5F_2">
      <g>
        <path  d="M30.535,12.492L18.817,1.16C18.073,0.416,17.069,0,16.001,0c-1.069,0-2.073,0.416-2.828,1.172
         C12.417,1.928,12.001,2.932,12.001,4s0.416,2.073,1.172,2.828l4.167,4.332c0.068,0.068,0.16,0.188,0.16,0.367
         c0,0.133-0.051,0.257-0.144,0.35c-0.058,0.058-0.177,0.15-0.356,0.15H4c-2.184,0-3.971,1.767-4,3.945v0.037
         C0.01,18.214,1.804,20,4,20h13c0.18,0,0.299,0.093,0.354,0.147c0.096,0.096,0.146,0.22,0.146,0.353
         c0,0.181-0.092,0.299-0.146,0.354l-4.194,4.359c-0.742,0.741-1.158,1.746-1.158,2.814s0.416,2.073,1.172,2.828
         c0.755,0.756,1.759,1.172,2.828,1.172c1.068,0,2.072-0.416,2.828-1.172l11.541-11.16c0.059-0.037,0.114-0.081,0.165-0.132
         c0.944-0.944,1.465-2.2,1.465-3.536S31.479,13.436,30.535,12.492z M29.248,18.015c-0.041,0.027-0.079,0.06-0.115,0.095
         L17.427,29.43c-0.779,0.779-2.084,0.768-2.84,0.012c-0.378-0.378-0.586-0.88-0.586-1.414s0.208-1.036,0.586-1.414l4.194-4.359
         C19.24,21.795,19.5,21.168,19.5,20.5c0-0.667-0.259-1.294-0.729-1.764C18.3,18.263,17.67,18,17,18H4c-1.098,0-1.995-0.894-2-1.99
         c0.005-1.09,0.902-1.982,2-1.982h13c0.67,0,1.3-0.263,1.773-0.738c0.468-0.468,0.727-1.095,0.727-1.762
         c0-0.668-0.26-1.296-0.732-1.768l-4.167-4.332c-0.392-0.392-0.6-0.894-0.6-1.428s0.208-1.036,0.586-1.414
         c0.756-0.756,2.072-0.756,2.828,0l11.718,11.332C29.688,14.473,30,15.227,30,16.027C30,16.767,29.734,17.466,29.248,18.015z"></path>
      </g>
    </g>
  </g>
  <g id="cinema-camera" data-iconmelon="Line icon set:dc64ecfaf086df1478f6cf1b1a7748ea">
    <g id="Cinema_x5F_Camera">
      <g>
        <path  d="M16.654,15.896c0.329-0.136,0.484-0.512,0.349-0.84c-0.021-0.05-0.047-0.096-0.077-0.137
         c-0.747-1.462-3.489-2.559-4.972-1.944c-0.328,0.136-0.483,0.511-0.348,0.839l1.094,2.641c0.136,0.328,0.978,0.678,1.307,0.541
         l2.636-1.095C16.647,15.899,16.652,15.897,16.654,15.896z M11.301,23.529c-0.136-0.328-0.979-0.678-1.307-0.541l-2.64,1.093
         c-0.329,0.136-0.484,0.512-0.348,0.84c0.634,1.531,3.507,2.723,5.04,2.088c0.328-0.136,0.483-0.511,0.348-0.84L11.301,23.529z
          M18.178,19.598l-2.641,1.094c-0.328,0.137-0.677,0.979-0.541,1.307l1.094,2.641c0.136,0.328,0.511,0.483,0.84,0.348
         c1.532-0.635,2.722-3.509,2.087-5.04C18.881,19.618,18.506,19.462,18.178,19.598z M9.005,17.986l-1.094-2.641
         c-0.136-0.328-0.512-0.483-0.84-0.348c-1.533,0.635-2.722,3.51-2.088,5.04c0.137,0.329,0.512,0.483,0.84,0.348l2.64-1.093
         C8.792,19.156,9.141,18.314,9.005,17.986z M11.618,19.068c-0.511,0.211-0.753,0.796-0.541,1.307
         c0.211,0.511,0.795,0.752,1.307,0.541c0.51-0.212,0.752-0.796,0.541-1.307C12.713,19.099,12.129,18.856,11.618,19.068z
          M31.939,10.392c-0.009-0.044-0.027-0.084-0.038-0.128c-0.037-0.148-0.077-0.296-0.137-0.437
         c-0.014-0.032-0.034-0.061-0.049-0.093c-0.067-0.145-0.139-0.287-0.229-0.42c-0.015-0.021-0.035-0.039-0.05-0.061
         c-0.097-0.135-0.197-0.266-0.316-0.385c-0.046-0.046-0.099-0.077-0.146-0.119c-0.1-0.088-0.197-0.178-0.309-0.252
         c-0.079-0.054-0.166-0.091-0.249-0.136c-0.09-0.049-0.176-0.103-0.271-0.143c-0.087-0.035-0.177-0.055-0.266-0.082
         c-0.099-0.031-0.194-0.068-0.297-0.089c-0.165-0.032-0.332-0.045-0.5-0.05C29.056,7.998,29.028,7.99,29,7.99
         c-0.029,0-0.057,0.008-0.085,0.009c-0.169,0.005-0.338,0.018-0.505,0.051c-0.058,0.012-0.111,0.034-0.168,0.05
         c-0.135,0.034-0.269,0.069-0.397,0.123c-0.044,0.019-0.083,0.046-0.126,0.066c-0.134,0.062-0.266,0.128-0.39,0.211
         c-0.049,0.033-0.089,0.075-0.135,0.11c-0.104,0.079-0.21,0.153-0.305,0.248l-4.803,4.655c-2.064-3.204-5.607-5.358-9.66-5.502
         l-4.903-4.74c-0.021-0.02-0.047-0.026-0.068-0.043c0.048-0.172,0.08-0.347,0.08-0.529c0.001-0.535-0.207-1.038-0.586-1.416
         L6.242,0.576c-0.756-0.756-2.072-0.756-2.828,0L0.588,3.403C0.209,3.779,0.001,4.281,0,4.814c-0.001,0.535,0.206,1.039,0.586,1.42
         l0.707,0.705c0.378,0.378,0.88,0.586,1.414,0.586c0.184,0,0.36-0.033,0.532-0.081c0.021,0.026,0.03,0.058,0.054,0.081l2.322,2.322
         C2.248,11.975,0,15.721,0,19.99c0,2.171,0.588,4.203,1.6,5.961c0.811,1.46,0.329,3.315-1.114,4.182
         c-0.474,0.284-0.627,0.898-0.343,1.372c0.188,0.312,0.519,0.485,0.858,0.485c0.175,0,0.353-0.046,0.514-0.143
         c1.193-0.716,1.984-1.847,2.312-3.097C5.971,30.754,8.841,31.99,12,31.99c4.231,0,7.949-2.206,10.087-5.523l4.792,4.645
         c0.045,0.045,0.099,0.077,0.146,0.119c0.1,0.088,0.198,0.178,0.31,0.252c0.079,0.054,0.165,0.09,0.248,0.135
         c0.09,0.049,0.177,0.104,0.272,0.144c0.078,0.032,0.16,0.05,0.24,0.075c0.107,0.034,0.213,0.073,0.325,0.096
         c0.076,0.015,0.153,0.015,0.23,0.023c0.116,0.014,0.229,0.035,0.35,0.035c0.119,0,0.233-0.021,0.349-0.035
         c0.077-0.009,0.155-0.009,0.231-0.023c0.112-0.022,0.218-0.062,0.325-0.097c0.08-0.024,0.162-0.042,0.24-0.074
         c0.096-0.04,0.183-0.095,0.272-0.144c0.083-0.044,0.169-0.081,0.248-0.135c0.11-0.074,0.208-0.163,0.308-0.251
         c0.048-0.042,0.102-0.074,0.147-0.12c0.119-0.119,0.22-0.25,0.316-0.385c0.015-0.021,0.035-0.039,0.05-0.061
         c0.091-0.135,0.163-0.278,0.23-0.424c0.014-0.03,0.034-0.058,0.047-0.089c0.06-0.141,0.1-0.288,0.137-0.438
         c0.011-0.043,0.029-0.083,0.038-0.127C31.979,29.395,32,29.193,32,28.99v-18C32,10.787,31.979,10.586,31.939,10.392z M2.706,5.524
         L2,4.819L4.828,1.99l0.707,0.707L2.706,5.524z M4.828,6.232l1.416-1.416l3.509,3.393c-0.788,0.149-1.55,0.376-2.275,0.673
         L4.828,6.232z M12,29.99c-3.711,0-6.95-2.037-8.676-5.047c-0.021-0.038-0.031-0.078-0.054-0.115
         c-0.013-0.021-0.034-0.032-0.048-0.053C2.444,23.354,2,21.723,2,19.99c0-5.514,4.486-10,10-10s10,4.486,10,10
         S17.514,29.99,12,29.99z M26,27.475l-2.935-2.845C23.666,23.202,24,21.635,24,19.99s-0.334-3.212-0.935-4.64L26,12.506V27.475z
          M30,28.99c0,0.137-0.028,0.267-0.078,0.386c-0.044,0.104-0.111,0.198-0.189,0.284c-0.015,0.016-0.025,0.032-0.04,0.047
         c-0.094,0.09-0.198,0.16-0.312,0.206c-0.045,0.019-0.098,0.018-0.146,0.03c-0.327,0.078-0.684,0.006-0.945-0.252
         C28.111,29.511,28,29.264,28,28.99v-18c0-0.284,0.122-0.538,0.312-0.72c0.092-0.088,0.194-0.157,0.305-0.203
         C28.735,10.019,28.864,9.99,29,9.99s0.265,0.028,0.383,0.077c0.11,0.046,0.213,0.115,0.305,0.203
         c0.017,0.016,0.029,0.033,0.045,0.05c0.078,0.086,0.146,0.18,0.189,0.284C29.972,10.724,30,10.854,30,10.99V28.99z"></path>
      </g>
    </g>
  </g>
  <g id="close" data-iconmelon="Line icon set:ffc557ab24bdea08861c9802814b5bc2">
    <g id="Close">
      <g>
        <path  d="M21.678,16.001l9.18-9.172c0.757-0.755,1.174-1.76,1.174-2.828s-0.417-2.073-1.174-2.829
         c-0.755-0.755-1.762-1.171-2.831-1.171s-2.075,0.416-2.831,1.171l-9.182,9.172L6.833,1.172C6.077,0.416,5.072,0,4.001,0
         c-1.069,0-2.074,0.416-2.83,1.172c-1.561,1.56-1.562,4.097,0,5.657l9.182,9.172l-9.181,9.172c-1.562,1.56-1.562,4.097,0,5.658
         c0.756,0.755,1.762,1.171,2.831,1.171s2.075-0.416,2.831-1.172l9.181-9.172l9.181,9.171c0.756,0.755,1.761,1.172,2.83,1.172
         c1.07,0,2.076-0.416,2.832-1.172c1.562-1.561,1.562-4.098,0-5.657L21.678,16.001z M29.442,29.415
         c-0.757,0.755-2.075,0.756-2.832,0l-9.888-9.878c-0.391-0.391-1.024-0.391-1.415,0l-9.889,9.879c-0.757,0.755-2.075,0.755-2.832,0
         c-0.78-0.78-0.78-2.049,0-2.829l9.889-9.879c0.188-0.188,0.293-0.441,0.293-0.707c0-0.265-0.105-0.52-0.293-0.707l-9.89-9.879
         c-0.78-0.78-0.78-2.049,0-2.829C2.964,2.208,3.467,2,4.001,2c0.536,0,1.038,0.208,1.417,0.586l9.889,9.879
         c0.391,0.391,1.024,0.391,1.415,0l9.889-9.878c0.757-0.756,2.075-0.756,2.832-0.001c0.378,0.378,0.587,0.881,0.587,1.415
         s-0.209,1.036-0.587,1.414l-9.888,9.879c-0.391,0.391-0.391,1.023,0,1.414l9.888,9.878C30.223,27.366,30.223,28.635,29.442,29.415
         z"></path>
      </g>
    </g>
  </g>
  <g id="check" data-iconmelon="Line icon set:2e9ea26ea48816365d28df5da250097f">
    <g id="Check">
      <g>
        <path  d="M30.768,5.151c-1.51-1.511-4.146-1.511-5.657,0L11.938,18.324l-5.05-5.05
         c-1.513-1.513-4.146-1.511-5.657,0c-1.559,1.559-1.56,4.096,0,5.656l7.879,7.879c0.756,0.756,1.76,1.172,2.828,1.172
         c1.069,0,2.073-0.416,2.828-1.172l16.002-16c0.756-0.756,1.172-1.761,1.172-2.829S31.523,5.907,30.768,5.151z M29.354,9.396
         l-16.002,16c-0.756,0.756-2.072,0.756-2.828,0l-7.879-7.878c-0.779-0.78-0.779-2.049,0-2.829c0.378-0.378,0.88-0.586,1.415-0.586
         c0.534,0,1.036,0.208,1.414,0.586l5.757,5.757c0.391,0.391,1.023,0.391,1.414,0l13.88-13.879c0.756-0.756,2.073-0.756,2.829,0
         c0.378,0.377,0.586,0.88,0.586,1.414S29.731,9.018,29.354,9.396z"></path>
      </g>
    </g>
  </g>
  <g id="home" data-iconmelon="Line icon set:3192e3577bd4e534d1573addb564b8b8">
    <g id="Home">
      <g>
        <path  d="M31.121,13.862l-13-13.013c-1.134-1.134-3.108-1.134-4.242,0l-13,13.013c-1.17,1.171-1.17,3.075,0,4.246
         c0.567,0.567,1.32,0.88,2.121,0.88c0.348,0,0.682-0.069,1-0.182v11.192c0,1.104,0.897,2.002,2,2.002h4c1.103,0,2-0.898,2-2.002
         v-7.007h8v7.007c0,1.104,0.897,2.002,2,2.002h4c1.103,0,2-0.898,2-2.002V18.807c0.318,0.112,0.652,0.182,1,0.182
         c0.801,0,1.554-0.312,2.121-0.88C32.291,16.938,32.291,15.033,31.121,13.862z M15.293,2.265c0.189-0.188,0.44-0.293,0.707-0.293
         s0.518,0.104,0.707,0.293c0.39,0.391,0.39,1.025,0,1.416L16,4.388l-0.707-0.707C14.903,3.29,14.903,2.655,15.293,2.265z
          M3.707,16.693c-0.378,0.377-1.036,0.377-1.414,0c-0.39-0.391-0.39-1.025,0-1.416l11.009-11.02
         c0.143,0.301,0.328,0.589,0.577,0.838l0.707,0.708L3.707,16.693z M26,29.999h-4v-7.007c0-1.104-0.897-2.002-2-2.002h-8
         c-1.103,0-2,0.898-2,2.002v7.007H6V17.229l10-10.01l10,10.01V29.999z M29.707,16.693c-0.378,0.377-1.036,0.377-1.414,0
         L17.414,5.804l0.707-0.708c0.249-0.249,0.434-0.537,0.577-0.838l11.009,11.02C30.097,15.668,30.097,16.303,29.707,16.693z
          M12,14.984c0,2.208,1.794,4.004,4,4.004s4-1.796,4-4.004s-1.794-4.004-4-4.004S12,12.776,12,14.984z M18,14.984
         c0,1.104-0.897,2.002-2,2.002s-2-0.898-2-2.002s0.897-2.002,2-2.002S18,13.881,18,14.984z"></path>
      </g>
    </g>
  </g>
  <g id="images" data-iconmelon="Line icon set:244bd82af76ac7ece3792b485b3ec5f6">
    <g id="images">
      <g>
        <path  d="M11.286,0H2.714C1.218,0,0,1.218,0,2.715v8.57C0,12.782,1.218,14,2.714,14h8.572
         C12.782,14,14,12.782,14,11.285v-8.57C14,1.218,12.782,0,11.286,0z M12,11.285C12,11.68,11.68,12,11.286,12H2.714
         C2.32,12,2,11.68,2,11.285v-8.57C2,2.32,2.32,2,2.714,2h8.572C11.68,2,12,2.32,12,2.715V11.285z M29.286,0h-8.572
         C19.218,0,18,1.218,18,2.715v8.57C18,12.782,19.218,14,20.714,14h8.572C30.782,14,32,12.782,32,11.285v-8.57
         C32,1.218,30.782,0,29.286,0z M30,11.285C30,11.68,29.68,12,29.286,12h-8.572C20.32,12,20,11.68,20,11.285v-8.57
         C20,2.32,20.32,2,20.714,2h8.572C29.68,2,30,2.32,30,2.715V11.285z M11.286,18H2.714C1.218,18,0,19.218,0,20.714v8.572
         C0,30.782,1.218,32,2.714,32h8.572C12.782,32,14,30.782,14,29.286v-8.572C14,19.218,12.782,18,11.286,18z M12,29.286
         C12,29.68,11.68,30,11.286,30H2.714C2.32,30,2,29.68,2,29.286v-8.572C2,20.32,2.32,20,2.714,20h8.572C11.68,20,12,20.32,12,20.714
         V29.286z M29.286,18h-8.572C19.218,18,18,19.218,18,20.714v8.572C18,30.782,19.218,32,20.714,32h8.572
         C30.782,32,32,30.782,32,29.286v-8.572C32,19.218,30.782,18,29.286,18z M30,29.286C30,29.68,29.68,30,29.286,30h-8.572
         C20.32,30,20,29.68,20,29.286v-8.572C20,20.32,20.32,20,20.714,20h8.572C29.68,20,30,20.32,30,20.714V29.286z"></path>
      </g>
    </g>
  </g>
  <g id="magnifying-glass" data-iconmelon="Line icon set:08ac302ea8578471181a27ce24d61622">
    <g id="Magnifying_x5F_Glass">
      <g>
        <path  d="M20.52,0C14.173,0,9.009,5.158,9.009,11.5c0,2.083,0.565,4.033,1.539,5.721L0.88,26.879
         c-1.173,1.171-1.173,3.071,0,4.242C1.466,31.707,2.234,32,3.003,32s1.537-0.293,2.123-0.879l9.668-9.658
         C16.482,22.435,18.435,23,20.52,23c6.348,0,11.512-5.158,11.512-11.5S26.867,0,20.52,0z M3.711,29.707
         C3.455,29.962,3.157,30,3.003,30s-0.452-0.038-0.708-0.293C2.04,29.452,2.002,29.155,2.002,29c0-0.154,0.038-0.452,0.293-0.706
         l9.415-9.407c0.431,0.512,0.904,0.984,1.415,1.415L3.711,29.707z M20.52,21c-5.243,0-9.509-4.262-9.509-9.5S15.276,2,20.52,2
         c5.244,0,9.51,4.262,9.51,9.5S25.764,21,20.52,21z M25.779,6.11c-0.39-0.391-1.023-0.391-1.414,0
         c-0.391,0.389-0.391,1.022,0,1.413c2.197,2.196,2.197,5.768,0.001,7.962c-0.391,0.39-0.391,1.023,0,1.413
         c0.196,0.195,0.451,0.293,0.707,0.293s0.511-0.098,0.707-0.293C28.756,13.925,28.756,9.086,25.779,6.11z"></path>
      </g>
    </g>
  </g>
  <g id="menu" data-iconmelon="Line icon set:0cba7c8f9af05bf9f9e610ae336d4153">
    <g id="menu">
      <g>
        <path  d="M3,11h26c1.654,0,3-1.346,3-3s-1.346-3-3-3H3C1.346,5,0,6.346,0,8S1.346,11,3,11z M3,7h26
         c0.552,0,1,0.449,1,1c0,0.552-0.448,1-1,1H3C2.448,9,2,8.552,2,8C2,7.449,2.448,7,3,7z M29,13H3c-1.654,0-3,1.346-3,3s1.346,3,3,3
         h26c1.654,0,3-1.346,3-3S30.654,13,29,13z M29,17H3c-0.552,0-1-0.448-1-1s0.448-1,1-1h26c0.552,0,1,0.448,1,1S29.552,17,29,17z
          M29,21H3c-1.654,0-3,1.346-3,3s1.346,3,3,3h26c1.654,0,3-1.346,3-3S30.654,21,29,21z M29,25H3c-0.552,0-1-0.448-1-1s0.448-1,1-1
         h26c0.552,0,1,0.448,1,1S29.552,25,29,25z"></path>
      </g>
    </g>
  </g>
  <g id="setup" data-iconmelon="Line icon set:1578fd04ab47a2523af9f8dbf40e26a7">
    <g id="Setup">
      <g>
        <path  d="M8,16.184V3c0-1.654-1.346-3-3-3S2,1.346,2,3v13.184C0.839,16.599,0,17.698,0,19v4
         c0,1.302,0.839,2.401,2,2.815V29c0,1.654,1.346,3,3,3s3-1.346,3-3v-3.185c1.161-0.414,2-1.514,2-2.815v-4
         C10,17.698,9.161,16.599,8,16.184z M4,3c0-0.552,0.448-1,1-1s1,0.448,1,1v13H4V3z M6,29c0,0.552-0.448,1-1,1s-1-0.448-1-1v-3h2V29
         z M8,23c0,0.552-0.448,1-1,1H3c-0.552,0-1-0.448-1-1v-4c0-0.552,0.448-1,1-1h4c0.552,0,1,0.448,1,1V23z M30,12.184V3
         c0-1.654-1.346-3-3-3s-3,1.346-3,3v9.184c-1.161,0.415-2,1.515-2,2.816v4c0,1.302,0.839,2.401,2,2.815V29c0,1.654,1.346,3,3,3
         s3-1.346,3-3v-7.185c1.161-0.414,2-1.514,2-2.815v-4C32,13.698,31.161,12.599,30,12.184z M26,3c0-0.552,0.448-1,1-1s1,0.448,1,1v9
         h-2V3z M28,29c0,0.552-0.448,1-1,1s-1-0.448-1-1v-7h2V29z M30,19c0,0.551-0.448,1-1,1h-4c-0.552,0-1-0.449-1-1v-4
         c0-0.552,0.448-1,1-1h4c0.552,0,1,0.448,1,1V19z M19,4.185V3c0-1.654-1.346-3-3-3s-3,1.346-3,3v1.185C11.839,4.599,11,5.698,11,7
         v4c0,1.302,0.839,2.401,2,2.815V29c0,1.654,1.346,3,3,3s3-1.346,3-3V13.816c1.161-0.415,2-1.515,2-2.816V7
         C21,5.698,20.161,4.599,19,4.185z M15,3c0-0.552,0.448-1,1-1s1,0.448,1,1v1h-2V3z M17,29c0,0.552-0.448,1-1,1s-1-0.448-1-1V14h2
         V29z M19,11c0,0.551-0.448,1-1,1h-4c-0.552,0-1-0.449-1-1V7c0-0.552,0.448-1,1-1h4c0.552,0,1,0.448,1,1V11z"></path>
      </g>
    </g>
  </g>
  <g id="trash-can" data-iconmelon="Line icon set:b07401d18d0c21c63b30e885840d6b81">
    <g id="Trash_x5F_Can">
      <g>
        <path  d="M29,1h-9c0-0.553-0.447-1-1-1h-6c-0.553,0-1,0.447-1,1H3C1.346,1,0,2.346,0,4v2c0,0.552,0.447,1,1,1h3v22
         c0,1.654,1.346,3,3,3h18c1.654,0,3-1.346,3-3V7h3c0.553,0,1-0.448,1-1V4C32,2.346,30.654,1,29,1z M26,29c0,0.551-0.448,1-1,1H7
         c-0.552,0-1-0.449-1-1V7h20V29z M30,5H2V4c0-0.552,0.448-1,1-1h26c0.552,0,1,0.448,1,1V5z M10,28c0.553,0,1-0.448,1-1V12
         c0-0.553-0.447-1-1-1s-1,0.447-1,1v15C9,27.552,9.447,28,10,28z M14,28c0.553,0,1-0.448,1-1V12c0-0.553-0.447-1-1-1s-1,0.447-1,1
         v15C13,27.552,13.447,28,14,28z M18,28c0.553,0,1-0.448,1-1V12c0-0.553-0.447-1-1-1s-1,0.447-1,1v15C17,27.552,17.447,28,18,28z
          M22,28c0.553,0,1-0.448,1-1V12c0-0.553-0.447-1-1-1s-1,0.447-1,1v15C21,27.552,21.447,28,22,28z"></path>
      </g>
    </g>
  </g>
  <g id="tools" data-iconmelon="Line icon set:2a7976ee1f69cb69524deb344b59eaa7">
    <g id="Tools">
      <g>
        <path  d="M16,7.322c-4.784,0-8.677,3.893-8.677,8.678c0,4.784,3.893,8.677,8.677,8.677s8.677-3.893,8.677-8.677
         C24.676,11.215,20.784,7.322,16,7.322z M16,22.677c-3.682,0-6.677-2.995-6.677-6.677S12.318,9.322,16,9.322
         s6.677,2.996,6.677,6.678S19.681,22.677,16,22.677z M31.117,18.829c-1.428-0.185-2.505-1.4-2.505-2.829s1.077-2.646,2.505-2.829
         c0.284-0.037,0.538-0.193,0.699-0.43c0.161-0.237,0.213-0.531,0.142-0.809c-0.388-1.527-0.992-2.987-1.798-4.341
         c-0.146-0.246-0.391-0.418-0.672-0.472c-0.283-0.053-0.572,0.016-0.799,0.191c-1.103,0.852-2.785,0.756-3.771-0.23
         c-1.012-1.01-1.11-2.631-0.23-3.771c0.175-0.226,0.245-0.517,0.191-0.798s-0.225-0.526-0.471-0.673
         c-1.351-0.804-2.811-1.408-4.341-1.798c-0.279-0.07-0.572-0.019-0.809,0.142c-0.237,0.161-0.394,0.416-0.431,0.699
         c-0.184,1.428-1.4,2.504-2.829,2.504c-1.43,0-2.646-1.076-2.828-2.503c-0.037-0.284-0.193-0.539-0.43-0.7
         c-0.237-0.16-0.53-0.211-0.809-0.142C10.402,0.432,8.941,1.036,7.59,1.84C7.344,1.986,7.173,2.231,7.12,2.513
         s0.017,0.572,0.191,0.798c0.88,1.14,0.782,2.761-0.229,3.771C6.097,8.066,4.415,8.164,3.31,7.312
         C3.083,7.137,2.793,7.069,2.511,7.12C2.23,7.174,1.986,7.346,1.839,7.592c-0.807,1.355-1.411,2.816-1.798,4.342
         c-0.07,0.277-0.018,0.571,0.143,0.808c0.161,0.236,0.416,0.393,0.699,0.43c1.428,0.184,2.504,1.4,2.504,2.829
         s-1.076,2.645-2.504,2.829c-0.283,0.036-0.538,0.192-0.699,0.429c-0.16,0.237-0.213,0.531-0.143,0.809
         c0.387,1.526,0.992,2.987,1.798,4.342c0.146,0.246,0.391,0.418,0.672,0.472c0.28,0.051,0.572-0.017,0.798-0.19
         c1.108-0.853,2.789-0.755,3.772,0.229c1.011,1.011,1.109,2.632,0.229,3.771c-0.175,0.227-0.244,0.518-0.19,0.799
         c0.054,0.28,0.226,0.525,0.471,0.672c1.352,0.804,2.812,1.408,4.342,1.798c0.081,0.021,0.164,0.03,0.246,0.03
         c0.198,0,0.395-0.059,0.562-0.173c0.236-0.161,0.393-0.416,0.43-0.699c0.183-1.428,1.398-2.504,2.828-2.504
         c1.429,0,2.646,1.076,2.829,2.504c0.037,0.284,0.193,0.539,0.431,0.699c0.236,0.162,0.529,0.213,0.809,0.143
         c1.528-0.39,2.988-0.994,4.34-1.798c0.245-0.146,0.417-0.391,0.471-0.672s-0.016-0.571-0.19-0.798
         c-0.879-1.141-0.779-2.762,0.23-3.771c0.986-0.985,2.667-1.081,3.771-0.229c0.226,0.175,0.517,0.244,0.798,0.19
         s0.525-0.226,0.672-0.472c0.806-1.354,1.41-2.814,1.798-4.342c0.071-0.277,0.02-0.571-0.142-0.808
         C31.655,19.021,31.401,18.865,31.117,18.829z M28.919,22.514c-1.802-0.803-4.017-0.409-5.415,0.991
         c-1.441,1.441-1.795,3.611-0.992,5.415c-0.639,0.322-1.301,0.597-1.981,0.82c-0.707-1.843-2.491-3.128-4.531-3.128
         s-3.824,1.285-4.53,3.128c-0.681-0.224-1.344-0.498-1.982-0.82c0.805-1.803,0.451-3.974-0.991-5.416
         c-0.914-0.914-2.129-1.417-3.422-1.417c-0.688,0-1.369,0.148-1.994,0.427c-0.323-0.64-0.598-1.303-0.821-1.983
         c1.844-0.706,3.129-2.491,3.129-4.53c0-2.04-1.285-3.824-3.129-4.531c0.224-0.68,0.498-1.343,0.821-1.982
         c0.625,0.279,1.308,0.428,1.995,0.428c1.293,0,2.508-0.504,3.422-1.418c1.443-1.442,1.796-3.613,0.99-5.417
         c0.639-0.322,1.301-0.596,1.982-0.82c0.706,1.844,2.49,3.128,4.53,3.128s3.824-1.284,4.531-3.128
         c0.681,0.225,1.343,0.498,1.981,0.82c-0.805,1.804-0.451,3.975,0.992,5.417c0.914,0.914,2.129,1.417,3.421,1.417
         c0.688,0,1.369-0.148,1.994-0.427c0.323,0.64,0.598,1.302,0.821,1.982c-1.844,0.707-3.129,2.491-3.129,4.531
         c0,2.039,1.285,3.824,3.129,4.53C29.517,21.211,29.243,21.874,28.919,22.514z M16,11.258c-2.614,0-4.741,2.128-4.741,4.742
         s2.127,4.741,4.741,4.741s4.742-2.127,4.742-4.741S18.614,11.258,16,11.258z M16,17.871c-1.033,0-1.871-0.838-1.871-1.871
         s0.838-1.871,1.871-1.871s1.871,0.838,1.871,1.871S17.033,17.871,16,17.871z"></path>
      </g>
    </g>
  </g>
</svg>