<?xml version="1.0" encoding="utf-8"?>
<!-- Generator: Adobe Illustrator 17.0.0, SVG Export Plug-In . SVG Version: 6.00 Build 0)  -->
<!DOCTYPE svg PUBLIC "-//W3C//DTD SVG 1.1//EN" "http://www.w3.org/Graphics/SVG/1.1/DTD/svg11.dtd">
<svg version="1.1" xmlns="http://www.w3.org/2000/svg" xmlns:xlink="http://www.w3.org/1999/xlink" x="0px" y="0px" width="32px" height="14px" viewBox="0 0 32 32" style="enable-background:new 0 0 32 32;" xml:space="preserve">
<style type="text/css">
	.st0{fill-rule:evenodd;clip-rule:evenodd;}
	.st1{fill:#FFFFFF;}
</style>
<g id="Layer_3">
	<path d="M6,4l20,12L6,28V4 M6,2C5.7,2,5.3,2.1,5,2.3C4.4,2.6,4,3.3,4,4v24c0,0.7,0.4,1.4,1,1.7C5.3,29.9,5.7,30,6,30
		c0.4,0,0.7-0.1,1-0.3l20-12c0.6-0.4,1-1,1-1.7c0-0.7-0.4-1.4-1-1.7L7,2.3C6.7,2.1,6.4,2,6,2L6,2z" transform="translate(5) rotate(59 9 10)"/>
</g>
<g id="Layer_3">
    <path d="M6,4l20,12L6,28V4 M6,2C5.7,2,5.3,2.1,5,2.3C4.4,2.6,4,3.3,4,4v24c0,0.7,0.4,1.4,1,1.7C5.3,29.9,5.7,30,6,30
        c0.4,0,0.7-0.1,1-0.3l20-12c0.6-0.4,1-1,1-1.7c0-0.7-0.4-1.4-1-1.7L7,2.3C6.7,2.1,6.4,2,6,2L6,2z" transform="translate(30) rotate(59 9 10)"/>
</g>
<g id="Guides">
</g>
</svg>
