<?xml version="1.0" encoding="utf-8"?>
<!-- Generator: Adobe Illustrator 17.0.0, SVG Export Plug-In . SVG Version: 6.00 Build 0)  -->
<!DOCTYPE svg PUBLIC "-//W3C//DTD SVG 1.1//EN" "http://www.w3.org/Graphics/SVG/1.1/DTD/svg11.dtd">
<svg version="1.1" xmlns="http://www.w3.org/2000/svg" xmlns:xlink="http://www.w3.org/1999/xlink" x="0px" y="0px" width="32px" height="32px" viewBox="0 0 32 32" style="enable-background:new 0 0 32 32;" xml:space="preserve">
<style type="text/css">
	.st0{fill-rule:evenodd;clip-rule:evenodd;}
	.st1{fill:#FFFFFF;}
</style>
<g id="Layer_3">
	<g>
		<g>
			<path d="M17,4c0.6,0,1,0.4,1,1v1.2c1.3,0.3,2.4,0.8,3.5,1.5l0.9-0.9c0.2-0.2,0.5-0.3,0.7-0.3c0.3,0,0.5,0.1,0.7,0.3l1.4,1.4
				c0.4,0.4,0.4,1,0,1.4l-0.9,0.9c0.7,1,1.2,2.2,1.5,3.5H27c0.6,0,1,0.4,1,1v2c0,0.6-0.4,1-1,1h-1.2c-0.3,1.3-0.8,2.4-1.5,3.5
				l0.9,0.9c0.4,0.4,0.4,1,0,1.4l-1.4,1.4c-0.2,0.2-0.5,0.3-0.7,0.3c-0.3,0-0.5-0.1-0.7-0.3l-0.9-0.9c-1,0.7-2.2,1.2-3.5,1.5V27
				c0,0.6-0.4,1-1,1h-2c-0.6,0-1-0.4-1-1v-1.2c-1.3-0.3-2.4-0.8-3.5-1.5l-0.9,0.9c-0.2,0.2-0.5,0.3-0.7,0.3c-0.3,0-0.5-0.1-0.7-0.3
				l-1.4-1.4c-0.4-0.4-0.4-1,0-1.4l0.9-0.9c-0.7-1-1.2-2.2-1.5-3.5H5c-0.6,0-1-0.4-1-1v-2c0-0.6,0.4-1,1-1h1.2
				c0.3-1.3,0.8-2.4,1.5-3.5L6.8,9.6c-0.4-0.4-0.4-1,0-1.4l1.4-1.4c0.2-0.2,0.5-0.3,0.7-0.3c0.3,0,0.5,0.1,0.7,0.3l0.9,0.9
				c1-0.7,2.2-1.2,3.5-1.5V5c0-0.6,0.4-1,1-1H17 M17,2h-2c-1.5,0-2.8,1.2-3,2.7c-0.4,0.1-0.8,0.3-1.2,0.5c-0.5-0.4-1.2-0.7-1.9-0.7
				c-0.8,0-1.6,0.3-2.1,0.9L5.4,6.8C4.8,7.4,4.5,8.1,4.5,8.9c0,0.7,0.2,1.4,0.7,1.9C5,11.2,4.8,11.6,4.7,12C3.2,12.2,2,13.4,2,15v2
				c0,1.6,1.2,2.8,2.7,3c0.1,0.4,0.3,0.8,0.5,1.2c-0.4,0.5-0.7,1.2-0.7,1.9c0,0.8,0.3,1.6,0.9,2.1l1.4,1.4c0.6,0.6,1.3,0.9,2.1,0.9
				c0.7,0,1.4-0.2,1.9-0.7c0.4,0.2,0.8,0.4,1.2,0.5c0.2,1.5,1.4,2.7,3,2.7h2c1.5,0,2.8-1.2,3-2.7c0.4-0.1,0.8-0.3,1.2-0.5
				c0.5,0.4,1.2,0.7,1.9,0.7c0.8,0,1.6-0.3,2.1-0.9l1.4-1.4c0.6-0.6,0.9-1.3,0.9-2.1c0-0.7-0.2-1.4-0.7-1.9c0.2-0.4,0.4-0.8,0.5-1.2
				c1.5-0.2,2.7-1.4,2.7-3v-2c0-1.6-1.2-2.8-2.7-3c-0.1-0.4-0.3-0.8-0.5-1.2c0.4-0.5,0.7-1.2,0.7-1.9c0-0.8-0.3-1.6-0.9-2.1
				l-1.4-1.4c-0.6-0.6-1.3-0.9-2.1-0.9c-0.7,0-1.4,0.2-1.9,0.7C20.8,5,20.4,4.8,20,4.7C19.8,3.2,18.5,2,17,2L17,2z"/>
		</g>
		<g>
			<path d="M16,22.5c-3.6,0-6.5-2.9-6.5-6.5s2.9-6.5,6.5-6.5s6.5,2.9,6.5,6.5S19.6,22.5,16,22.5z M16,10.5c-3,0-5.5,2.5-5.5,5.5
				s2.5,5.5,5.5,5.5c3,0,5.5-2.5,5.5-5.5S19,10.5,16,10.5z"/>
		</g>
		<g>
			<path d="M16,19.5c-1.9,0-3.5-1.6-3.5-3.5s1.6-3.5,3.5-3.5c1.9,0,3.5,1.6,3.5,3.5S17.9,19.5,16,19.5z M16,13.5
				c-1.4,0-2.5,1.1-2.5,2.5s1.1,2.5,2.5,2.5c1.4,0,2.5-1.1,2.5-2.5S17.4,13.5,16,13.5z"/>
		</g>
	</g>
</g>
<g id="Guides">
</g>
</svg>
